<svg xmlns="http://www.w3.org/2000/svg" viewBox="0 0 286.1 96"><defs><style>.cls-1,.cls-4{fill:#2e2d2d;}.cls-1,.cls-2,.cls-3{fill-rule:evenodd;}.cls-2{fill:#e65540;}.cls-3{fill:#fff;}</style></defs><title>1112Ресурс 1</title><g id="Слой_2" data-name="Слой 2"><g id="Layer_1" data-name="Layer 1"><path class="cls-1" d="M114,4h28a32,32,0,0,1,0,64H114V4Zm8,8V60h20a24,24,0,0,0,0-48Z"/><path class="cls-1" d="M226,4v8H204V68h-8V12H174V4Z"/><path class="cls-1" d="M286,4v8H264V68h-8V12H234V4Z"/><polygon class="cls-2" points="0 0 96 0 96 96 65.14 96 30.86 96 0 96 0 0 0 0"/><polygon class="cls-3" points="66 79.04 77.08 67.96 58.22 53.07 51.85 61.12 66 79.04 66 79.04"/><polygon class="cls-3" points="58.18 46.88 77.08 31.96 66 20.88 51.83 38.84 58.18 46.88 58.18 46.88"/><polygon class="cls-3" points="18.92 67.96 30 79.04 53 50 30 20.88 18.92 31.96 41.72 49.96 18.92 67.96 18.92 67.96"/><path class="cls-4" d="M286.1,88.74a2.86,2.86,0,0,1-1.12,2.4,4.85,4.85,0,0,1-3,.86,7.56,7.56,0,0,1-3.2-.54V90.15a8.78,8.78,0,0,0,3.25.66,3.41,3.41,0,0,0,2-.52,1.68,1.68,0,0,0,.69-1.43,1.77,1.77,0,0,0-.25-1,2.24,2.24,0,0,0-.81-.72,12.64,12.64,0,0,0-1.74-.74A5.66,5.66,0,0,1,279.6,85a3.08,3.08,0,0,1-.7-2.08,2.59,2.59,0,0,1,1-2.15,4.23,4.23,0,0,1,2.68-.8,7.82,7.82,0,0,1,3.2.64l-.42,1.18a7.13,7.13,0,0,0-2.81-.61,2.8,2.8,0,0,0-1.69.46,1.54,1.54,0,0,0-.6,1.29,2,2,0,0,0,.22,1,2.19,2.19,0,0,0,.76.71,9.55,9.55,0,0,0,1.62.71,6.45,6.45,0,0,1,2.53,1.41,2.77,2.77,0,0,1,.69,1.95Zm-11.58,3.1H268V80.16h6.5v1.21h-5.14v3.76h4.83v1.2h-4.83v4.3h5.14v1.21Zm-18.49,0-4-10.35H252c.07.82.11,1.79.11,2.92v7.43h-1.25V80.16h2l3.7,9.63h.06l3.73-9.63h2V91.84h-1.36V84.32c0-.87,0-1.8.11-2.82h-.06l-4,10.34ZM243.58,86.9l-1.36-3.62c-.18-.45-.36-1-.55-1.68a13.29,13.29,0,0,1-.5,1.68L239.8,86.9Zm1.87,4.94L244,88.13h-4.68l-1.44,3.71h-1.37l4.61-11.72h1.15l4.59,11.72Zm-16.51-6.12h4V91.4a12.24,12.24,0,0,1-1.88.45,14.53,14.53,0,0,1-2.22.15,5.38,5.38,0,0,1-4.13-1.58A6.23,6.23,0,0,1,223.2,86a6.79,6.79,0,0,1,.73-3.19A5,5,0,0,1,226,80.72a6.82,6.82,0,0,1,3.21-.72,8.89,8.89,0,0,1,3.48.68l-.52,1.2a7.75,7.75,0,0,0-3-.67,4.35,4.35,0,0,0-3.33,1.27,4.91,4.91,0,0,0-1.2,3.52,5.11,5.11,0,0,0,1.15,3.59,4.46,4.46,0,0,0,3.39,1.22,10.38,10.38,0,0,0,2.37-.28v-3.6h-2.61V85.72Zm-25.66.59v4.37h2.43a3.5,3.5,0,0,0,2.13-.55,2,2,0,0,0,.72-1.71,1.84,1.84,0,0,0-.73-1.6,3.93,3.93,0,0,0-2.23-.51Zm0-1.14h2.23a3.56,3.56,0,0,0,2.07-.46,1.73,1.73,0,0,0,.63-1.52,1.53,1.53,0,0,0-.7-1.41,4.27,4.27,0,0,0-2.23-.44h-2v3.83Zm-1.36-5h3.3a6.14,6.14,0,0,1,3.36.7,2.44,2.44,0,0,1,1,2.19,2.57,2.57,0,0,1-.58,1.72,2.78,2.78,0,0,1-1.69.87v.08C209.12,86,210,87,210,88.52A3,3,0,0,1,209,91a4.52,4.52,0,0,1-3,.88h-4.07V80.16Zm-5,11.68h-6.5V80.16h6.5v1.21h-5.14v3.76h4.83v1.2h-4.83v4.3h5.14v1.21Zm-13.85,0h-1.34L179.38,84c-.11-.35-.23-.78-.37-1.31a8.82,8.82,0,0,1-.22-.95,16.67,16.67,0,0,1-.56,2.31L176,91.84h-1.34L171.5,80.16h1.44l1.85,7.21a26.14,26.14,0,0,1,.55,2.75,20.81,20.81,0,0,1,.64-2.86l2.09-7.1h1.44l2.2,7.16a23.77,23.77,0,0,1,.65,2.8,24,24,0,0,1,.57-2.76l1.84-7.2h1.43l-3.12,11.68Zm-23.67-3.1a2.86,2.86,0,0,1-1.12,2.4,4.85,4.85,0,0,1-3,.86,7.51,7.51,0,0,1-3.19-.54V90.15a7.91,7.91,0,0,0,1.56.48,8,8,0,0,0,1.68.18,3.41,3.41,0,0,0,2-.52,1.68,1.68,0,0,0,.69-1.43,1.86,1.86,0,0,0-.24-1,2.37,2.37,0,0,0-.82-.72,12.64,12.64,0,0,0-1.74-.74A5.55,5.55,0,0,1,152.92,85a3,3,0,0,1-.7-2.08,2.58,2.58,0,0,1,1-2.15,4.23,4.23,0,0,1,2.68-.8,7.82,7.82,0,0,1,3.2.64l-.42,1.18a7.13,7.13,0,0,0-2.81-.61,2.75,2.75,0,0,0-1.68.46,1.52,1.52,0,0,0-.61,1.29,2.09,2.09,0,0,0,.22,1,2.19,2.19,0,0,0,.76.71,9.55,9.55,0,0,0,1.62.71,6.45,6.45,0,0,1,2.53,1.41,2.77,2.77,0,0,1,.69,1.95Zm-17.47-2.66h1.22a4.54,4.54,0,0,0,2.61-.58,2.15,2.15,0,0,0,.81-1.87,2,2,0,0,0-.76-1.72,4,4,0,0,0-2.37-.57h-1.51v4.74Zm6-2.52a3.27,3.27,0,0,1-1.21,2.73,5.52,5.52,0,0,1-3.46.95h-1.37v4.6h-1.36V80.16h3c2.91,0,4.37,1.14,4.37,3.4ZM129.7,86.08h1.22a4.54,4.54,0,0,0,2.61-.58,2.17,2.17,0,0,0,.8-1.87,2,2,0,0,0-.75-1.72,4,4,0,0,0-2.37-.57H129.7v4.74Zm6-2.52a3.3,3.3,0,0,1-1.21,2.73,5.52,5.52,0,0,1-3.46.95H129.7v4.6h-1.36V80.16h3c2.92,0,4.38,1.14,4.38,3.4ZM121.07,86.9l-1.36-3.62c-.17-.45-.36-1-.54-1.68a15.39,15.39,0,0,1-.51,1.68l-1.37,3.62Zm1.87,4.94-1.45-3.71h-4.68l-1.44,3.71H114l4.62-11.72h1.14l4.59,11.72Z"/></g></g></svg>